HIERARCHY
ROOT joint_Root
{
	OFFSET 0.0 0.0 0.0
	CHANNELS 6 Xposition Yposition Zposition Zrotation Xrotation Yrotation 
	JOINT Hips
	{
		OFFSET 4.5925 91.4895 -427.239
		CHANNELS 6 Xposition Yposition Zposition Zrotation Xrotation Yrotation 
		JOINT Spine
		{
			OFFSET 15.7357 0.0 0.0
			CHANNELS 6 Xposition Yposition Zposition Zrotation Xrotation Yrotation 
			JOINT Chest
			{
				OFFSET 8.98455 -0.406207 0.0
				CHANNELS 6 Xposition Yposition Zposition Zrotation Xrotation Yrotation 
				JOINT Neck
				{
					OFFSET 16.3773 0.0 0.0
					CHANNELS 6 Xposition Yposition Zposition Zrotation Xrotation Yrotation 
					JOINT Head
					{
						OFFSET 6.45672 0.0 0.0
						CHANNELS 6 Xposition Yposition Zposition Zrotation Xrotation Yrotation 
						End Site
						{
							OFFSET 0.0 0.0 0.0
						}
					}
				}
				JOINT Shoulder_L
				{
					OFFSET 12.9942 -0.242716 4.98039
					CHANNELS 6 Xposition Yposition Zposition Zrotation Xrotation Yrotation 
					JOINT UpperArm_L
					{
						OFFSET 5.34809 0.0 0.0
						CHANNELS 6 Xposition Yposition Zposition Zrotation Xrotation Yrotation 
						JOINT LowerArm_L
						{
							OFFSET 24.3286 1.87007e-05 0.0
							CHANNELS 6 Xposition Yposition Zposition Zrotation Xrotation Yrotation 
							JOINT Hand_L
							{
								OFFSET 22.2916 0.0 0.0
								CHANNELS 6 Xposition Yposition Zposition Zrotation Xrotation Yrotation 
								End Site
								{
									OFFSET 0.0 0.0 0.0
								}
							}
						}
					}
				}
				JOINT Shoulder_R
				{
					OFFSET 12.9945 -0.242716 -4.98039
					CHANNELS 6 Xposition Yposition Zposition Zrotation Xrotation Yrotation 
					JOINT UpperArm_R
					{
						OFFSET -5.34813 0.0 0.0
						CHANNELS 6 Xposition Yposition Zposition Zrotation Xrotation Yrotation 
						JOINT LowerArm_R
						{
							OFFSET -24.3289 0.000322201 0.0
							CHANNELS 6 Xposition Yposition Zposition Zrotation Xrotation Yrotation 
							JOINT Hand_R
							{
								OFFSET -22.2915 -0.000108084 0.0
								CHANNELS 6 Xposition Yposition Zposition Zrotation Xrotation Yrotation 
								End Site
								{
									OFFSET 0.0 0.0 0.0
								}
							}
						}
					}
				}
			}
		}
		JOINT UpperLeg_L
		{
			OFFSET -2.19248 -6.46944 0.0
			CHANNELS 6 Xposition Yposition Zposition Zrotation Xrotation Yrotation 
			JOINT LowerLeg_L
			{
				OFFSET 39.0811 0.0 -1.23785e-05
				CHANNELS 6 Xposition Yposition Zposition Zrotation Xrotation Yrotation 
				JOINT Foot_L
				{
					OFFSET 40.9854 0.0 -1.26872e-05
					CHANNELS 6 Xposition Yposition Zposition Zrotation Xrotation Yrotation 
					JOINT Toes_L
					{
						OFFSET 11.7543 0.0 0.0
						CHANNELS 6 Xposition Yposition Zposition Zrotation Xrotation Yrotation 
						End Site
						{
							OFFSET 0.0 0.0 0.0
						}
					}
				}
			}
		}
		JOINT UpperLeg_R
		{
			OFFSET -2.19251 6.46944 0.0
			CHANNELS 6 Xposition Yposition Zposition Zrotation Xrotation Yrotation 
			JOINT LowerLeg_R
			{
				OFFSET -39.0811 -0.00228153 -0.0401928
				CHANNELS 6 Xposition Yposition Zposition Zrotation Xrotation Yrotation 
				JOINT Foot_R
				{
					OFFSET -40.9854 0.0 0.0
					CHANNELS 6 Xposition Yposition Zposition Zrotation Xrotation Yrotation 
					JOINT Toes_R
					{
						OFFSET -11.7543 0.0 0.0
						CHANNELS 6 Xposition Yposition Zposition Zrotation Xrotation Yrotation 
						End Site
						{
							OFFSET 0.0 0.0 0.0
						}
					}
				}
			}
		}
	}
}
MOTION
Frames:	4
Frame Time:	0.0333333
0.000000 0.000000 0.000000 0.000000 0.000000 -0.000000 -1.526120 90.283400 1.359810 90.115200 -4.313050 6.855490 15.735700 0.000005 -0.000001 91.469600 83.960200 -87.037700 8.984550 -0.406207 -0.000000 4.318230 0.176549 8.847150 16.377300 -0.000001 -0.000001 10.073400 -2.780200 1.267310 6.456720 -0.000001 -0.000000 1.145210 -2.930030 0.472235 12.994200 -0.242716 4.980390 -86.680500 -7.359590 -65.638900 5.348090 -0.000007 -0.000001 -32.349600 -53.055800 -41.250300 24.328600 0.000019 0.000005 1.577530 3.272640 -25.754000 22.291600 -0.000001 0.000005 17.682500 4.974510 7.855910 12.994500 -0.242716 -4.980390 87.736700 7.481970 -73.116100 -5.348130 -0.000001 -0.000004 -58.855000 7.137070 -3.383500 -24.328900 0.000322 -0.000009 -6.839390 -9.594340 -35.733100 -22.291500 -0.000108 -0.000004 17.904800 5.464880 -5.175840 -2.192480 -6.469440 -0.000000 -175.876000 -10.130500 -3.107470 39.081100 -0.000007 -0.000012 -0.202326 0.319366 32.355500 40.985400 -0.000006 -0.000013 -0.461785 4.131940 -72.275000 11.754300 -0.000000 0.000003 -0.000160 -0.001535 -16.635800 -2.192510 6.469440 -0.000001 176.041000 16.306700 177.034000 -39.081100 -0.002282 -0.040193 -0.075218 0.120925 32.994500 -40.985400 0.000008 0.000006 5.724120 8.985300 -73.760700 -11.754300 -0.000006 -0.000006 -0.000538 -0.008612 -16.923600
0.000000 0.000000 0.000000 0.000000 0.000000 -0.000000 -1.302040 90.222300 1.264010 90.117600 -5.592870 6.691060 15.735700 0.000005 -0.000001 92.052800 83.838900 -87.285400 8.984550 -0.406207 -0.000000 4.553360 0.307691 9.511750 16.377300 -0.000001 -0.000001 10.101000 -2.906900 3.032900 6.456720 -0.000001 -0.000000 0.779424 -3.279110 0.605970 12.994200 -0.242716 4.980390 -87.708400 -5.009490 -65.378300 5.348090 -0.000007 -0.000001 -34.690600 -51.860400 -36.217400 24.328600 0.000019 0.000005 2.115590 4.361980 -25.903400 22.291600 -0.000001 0.000005 16.757100 4.935710 8.660420 12.994500 -0.242716 -4.980390 87.696900 7.605910 -73.098300 -5.348130 -0.000001 -0.000004 -58.712500 5.900240 -3.092970 -24.328900 0.000322 -0.000009 -7.841690 -9.821240 -38.912100 -22.291500 -0.000108 -0.000004 18.999100 5.482670 -5.848150 -2.192480 -6.469440 -0.000000 -176.019000 -10.890000 -3.360200 39.081100 -0.000007 -0.000012 -0.208170 0.324392 32.689600 40.985400 -0.000006 -0.000013 -0.453596 3.562420 -72.488800 11.754300 -0.000000 0.000003 -0.000162 -0.001549 -16.636300 -2.192510 6.469440 -0.000001 176.017000 15.246400 176.389000 -39.081100 -0.002282 -0.040193 -0.122536 0.191110 33.361800 -40.985400 0.000008 0.000006 5.001980 9.436760 -73.586900 -11.754300 -0.000006 -0.000006 -0.000402 -0.006517 -16.838500
0.000000 0.000000 0.000000 0.000000 0.000000 -0.000000 -1.340670 90.110800 1.260050 89.854000 -6.004840 6.954050 15.735700 0.000005 -0.000001 95.868700 83.663100 -91.033400 8.984550 -0.406207 -0.000000 4.811160 1.169490 9.610610 16.377300 -0.000001 -0.000001 9.627840 -3.666750 3.098580 6.456720 -0.000001 -0.000000 0.712807 -4.716840 0.518612 12.994200 -0.242716 4.980390 -87.747300 -4.793970 -64.793700 5.348090 -0.000007 -0.000001 -38.188000 -50.238700 -39.118400 24.328600 0.000019 0.000005 2.079030 4.343320 -25.608600 22.291600 -0.000001 0.000005 16.558100 4.905580 9.266190 12.994500 -0.242716 -4.980390 87.732800 7.516140 -73.160600 -5.348130 -0.000001 -0.000004 -59.520400 4.550940 -1.072280 -24.328900 0.000322 -0.000009 -9.111540 -10.744100 -40.702200 -22.291500 -0.000108 -0.000004 20.088700 5.492620 -6.238240 -2.192480 -6.469440 -0.000000 -175.726000 -10.730100 -3.355160 39.081100 -0.000007 -0.000012 -0.219885 0.334047 33.355200 40.985400 -0.000006 -0.000013 -0.614503 3.076740 -72.859100 11.754300 -0.000000 0.000003 -0.000184 -0.001730 -16.642900 -2.192510 6.469440 -0.000001 176.151000 14.964100 176.503000 -39.081100 -0.002282 -0.040193 -0.181491 0.277676 33.642700 -40.985400 0.000008 0.000006 4.189110 9.783490 -73.536100 -11.754300 -0.000006 -0.000006 -0.000328 -0.005343 -16.790800
0.000000 0.000000 0.000000 0.000000 0.000000 -0.000000 -1.579010 90.055700 1.282640 89.568400 -5.102380 7.367520 15.735700 0.000005 -0.000001 98.055700 83.544100 -93.360700 8.984550 -0.406207 -0.000000 4.968050 1.691800 9.306070 16.377300 -0.000001 -0.000001 9.337190 -4.056840 1.751090 6.456720 -0.000001 -0.000000 0.746003 -5.277700 -0.207060 12.994200 -0.242716 4.980390 -87.390700 -5.496730 -64.557200 5.348090 -0.000007 -0.000001 -41.546700 -50.793500 -47.889700 24.328600 0.000019 0.000005 1.557470 3.061980 -26.981700 22.291600 -0.000001 0.000005 17.501600 4.917930 9.021300 12.994500 -0.242716 -4.980390 87.753200 7.459790 -73.185200 -5.348130 -0.000001 -0.000004 -60.056400 4.856750 -0.033386 -24.328900 0.000322 -0.000009 -9.758960 -12.498100 -38.476000 -22.291500 -0.000108 -0.000004 20.258000 5.494870 -6.326580 -2.192480 -6.469440 -0.000000 -175.337000 -9.662140 -3.219640 39.081100 -0.000007 -0.000012 -0.225220 0.336900 33.763400 40.985400 -0.000006 -0.000013 -0.792331 3.051260 -73.003900 11.754300 -0.000000 0.000003 -0.000187 -0.001747 -16.643600 -2.192510 6.469440 -0.000001 176.390000 15.691500 177.119000 -39.081100 -0.002282 -0.040193 -0.173879 0.265959 33.670400 -40.985400 0.000008 0.000006 4.332460 9.525460 -73.704700 -11.754300 -0.000006 -0.000006 -0.000200 -0.003293 -16.707600
